<?xml version="1.0" encoding="UTF-8" standalone="no"?>
<!-- Created with Inkscape (http://www.inkscape.org/) -->

<svg
   width="270.93332mm"
   height="270.93332mm"
   viewBox="0 0 270.93332 270.93332"
   version="1.1"
   id="svg1"
   xml:space="preserve"
   xmlns:xlink="http://www.w3.org/1999/xlink"
   xmlns="http://www.w3.org/2000/svg"
   xmlns:svg="http://www.w3.org/2000/svg"><defs
     id="defs1"><linearGradient
       id="symbol_gradient"
       x1="512"
       y1="200"
       x2="512"
       y2="824"
       gradientUnits="userSpaceOnUse"><stop
         offset="0"
         stop-color="#33DFFF"
         id="stop1-9" /><stop
         offset="1"
         stop-color="#0066FF"
         id="stop2-0" /></linearGradient><linearGradient
       xlink:href="#symbol_gradient"
       id="linearGradient10"
       gradientUnits="userSpaceOnUse"
       x1="512"
       y1="200"
       x2="512"
       y2="824" /><linearGradient
       xlink:href="#symbol_gradient"
       id="linearGradient11"
       gradientUnits="userSpaceOnUse"
       x1="512"
       y1="200"
       x2="512"
       y2="824" /><linearGradient
       xlink:href="#symbol_gradient"
       id="linearGradient12"
       gradientUnits="userSpaceOnUse"
       x1="512"
       y1="200"
       x2="512"
       y2="824" /><linearGradient
       xlink:href="#symbol_gradient"
       id="linearGradient13"
       gradientUnits="userSpaceOnUse"
       x1="512"
       y1="200"
       x2="512"
       y2="824" /><linearGradient
       xlink:href="#symbol_gradient"
       id="linearGradient14"
       gradientUnits="userSpaceOnUse"
       x1="512"
       y1="200"
       x2="512"
       y2="824" /><linearGradient
       xlink:href="#symbol_gradient"
       id="linearGradient15"
       gradientUnits="userSpaceOnUse"
       x1="512"
       y1="200"
       x2="512"
       y2="824" /><linearGradient
       xlink:href="#symbol_gradient"
       id="linearGradient16"
       gradientUnits="userSpaceOnUse"
       x1="512"
       y1="200"
       x2="512"
       y2="824" /><linearGradient
       xlink:href="#symbol_gradient"
       id="linearGradient17"
       gradientUnits="userSpaceOnUse"
       x1="512"
       y1="200"
       x2="512"
       y2="824" /></defs><g
     id="layer1"
     transform="translate(314.89477,-25.68481)"><g
       id="Background_Component"
       transform="matrix(0.26458333,0,0,0.26458333,-314.89481,25.684809)"
       style="fill:none"><path
         d="M 0,256 C 0,114.5 114.5,0 256,0 h 512 c 141.5,0 256,114.5 256,256 v 512 c 0,141.5 -114.5,256 -256,256 H 256 C 114.5,1024 0,909.5 0,768 Z"
         fill="#fbfdff"
         id="path4"
         style="fill:none" /></g><g
       id="Waveform_Subgroup"
       style="fill:url(#linearGradient17)"
       transform="matrix(0.26458333,0,0,0.26458333,-314.89481,25.684809)"><rect
         x="176"
         y="528"
         width="64"
         height="96"
         rx="32"
         id="rect4"
         style="fill:url(#linearGradient10)" /><rect
         x="272"
         y="416"
         width="64"
         height="320"
         rx="32"
         id="rect5"
         style="fill:url(#linearGradient11)" /><rect
         x="368"
         y="320"
         width="64"
         height="512"
         rx="32"
         id="rect6"
         style="fill:url(#linearGradient12)" /><rect
         x="464"
         y="224"
         width="96"
         height="704"
         rx="48"
         id="rect7"
         style="fill:url(#linearGradient13)" /><!-- Střední, tlustší lišta --><rect
         x="592"
         y="384"
         width="64"
         height="384"
         rx="32"
         id="rect8"
         style="fill:url(#linearGradient14)" /><rect
         x="688"
         y="448"
         width="64"
         height="256"
         rx="32"
         id="rect9"
         style="fill:url(#linearGradient15)" /><rect
         x="784"
         y="528"
         width="64"
         height="96"
         rx="32"
         id="rect10"
         style="fill:url(#linearGradient16)" /></g></g></svg>
